<svg width="118" height="25.54" viewBox="0 0 449 101" fill="none" xmlns="http://www.w3.org/2000/svg">
<path d="M44.88 12.276L40.865 23.19L50.131 46.768H31.804L29.024 53.975H52.19L60.839 75.391H70.723L44.88 12.276ZM40.865 2.289H33.04L3.078 75.391H12.551L36.952 12.997L40.865 2.289Z" fill="black" stroke="black" stroke-width="5" stroke-miterlimit="2"/>
<path d="M107.033 76.42C109.71 76.42 112.284 76.111 114.755 75.39C117.113 74.8051 119.369 73.8679 121.448 72.61C123.426 71.4266 125.228 69.9714 126.802 68.287C128.346 66.639 129.582 64.889 130.508 62.83L122.683 60.667C122.066 62.109 121.242 63.344 120.213 64.374C119.183 65.507 117.947 66.434 116.609 67.154C115.167 67.978 113.726 68.595 112.181 69.007C110.534 69.419 108.99 69.625 107.342 69.625C104.974 69.625 102.709 69.213 100.65 68.287C98.59 67.463 96.737 66.227 95.09 64.58C93.443 63.036 92.104 61.182 91.075 58.917C90.045 56.755 89.427 54.284 89.221 51.607H133.803C133.803 51.298 133.906 50.783 133.906 50.166C133.906 49.548 134.009 48.93 134.009 48.106C134.009 44.606 133.289 41.106 132.053 37.81C130.843 34.5783 129.025 31.6079 126.699 29.059C124.331 26.588 121.448 24.529 118.153 22.984C114.858 21.543 111.152 20.719 107.136 20.719C103.018 20.719 99.311 21.543 96.016 22.984C92.619 24.426 89.736 26.484 87.266 28.956C84.794 31.53 82.941 34.516 81.602 37.81C80.264 41.208 79.646 44.812 79.646 48.518C79.646 52.328 80.264 55.931 81.602 59.329C82.941 62.727 84.794 65.713 87.265 68.184C89.633 70.758 92.516 72.817 95.914 74.258C99.208 75.7 102.915 76.42 107.034 76.42H107.033ZM125.463 44.915H89.015C89.221 42.444 89.736 40.075 90.765 37.913C91.795 35.854 93.031 34.001 94.678 32.456C96.326 30.912 98.178 29.676 100.341 28.853C102.401 28.029 104.665 27.514 107.136 27.514C109.504 27.514 111.77 28.029 113.932 28.853C115.991 29.677 117.844 30.912 119.492 32.353C121.139 33.898 122.477 35.751 123.507 37.913C124.537 40.075 125.257 42.443 125.463 44.915V44.915Z" fill="black" stroke="black" stroke-width="5" stroke-miterlimit="2"/>
<path d="M171.317 76.009C173.17 76.009 175.127 75.803 176.98 75.288C178.833 74.876 180.583 74.155 182.23 73.228C183.878 72.302 185.32 71.169 186.76 69.831C188.202 68.492 189.438 66.948 190.467 65.301V74.773C190.467 77.656 189.952 80.024 188.923 82.083C187.893 84.143 186.658 85.893 185.01 87.231C183.363 88.673 181.407 89.702 179.142 90.32C176.877 91.04 174.612 91.35 172.14 91.35C168.228 91.35 164.521 90.629 161.227 88.981C157.829 87.437 155.049 85.069 152.99 81.877L147.739 86.51C150.209 90.217 153.402 93.203 157.211 95.262C161.021 97.322 165.963 98.351 172.141 98.351C175.847 98.351 179.451 97.836 182.745 96.806C186.04 95.776 189.025 94.336 191.497 92.276C193.967 90.32 195.924 87.849 197.366 84.966C198.807 82.083 199.528 78.686 199.528 74.773V21.646H191.497V32.353C189.256 29.082 186.428 26.2543 183.157 24.013C179.862 21.852 175.95 20.719 171.42 20.719C167.713 20.719 164.315 21.543 161.227 22.984C158.137 24.426 155.564 26.484 153.402 28.956C151.137 31.53 149.489 34.516 148.254 37.913C147.018 41.311 146.504 44.915 146.504 48.621C146.504 52.225 147.018 55.622 148.254 58.917C149.489 62.212 151.137 65.197 153.402 67.669C155.564 70.243 158.138 72.302 161.227 73.743C164.315 75.288 167.61 76.009 171.317 76.009V76.009ZM174.097 68.595C171.42 68.595 169.052 68.081 166.787 67.051C164.521 66.021 162.668 64.58 161.021 62.727C159.308 60.9175 157.978 58.7817 157.108 56.447C156.078 54.078 155.667 51.504 155.667 48.827C155.667 46.356 156.079 43.988 156.902 41.517C157.726 39.046 158.859 36.884 160.403 34.927C161.844 33.074 163.698 31.53 165.86 30.294C168.022 29.162 170.493 28.544 173.273 28.544C175.023 28.544 176.773 28.853 178.523 29.471C180.274 30.088 181.922 31.015 183.466 32.148C184.907 33.28 186.246 34.618 187.481 36.06C188.717 37.604 189.644 39.252 190.467 41.105V56.549C190.055 58.093 189.437 59.535 188.408 60.976C187.378 62.418 186.04 63.756 184.598 64.889C183.054 66.021 181.407 66.948 179.656 67.566C177.884 68.2548 175.998 68.6042 174.096 68.596L174.097 68.595Z" fill="black" stroke="black" stroke-width="5" stroke-miterlimit="2"/>
<path d="M243.245 76.42C247.26 76.42 250.967 75.7 254.262 74.155C257.556 72.714 260.439 70.655 262.91 68.081C265.278 65.61 267.132 62.624 268.47 59.226C269.706 55.931 270.426 52.328 270.426 48.621C270.426 44.915 269.706 41.311 268.367 37.913C267.029 34.619 265.175 31.633 262.807 29.059C260.439 26.588 257.557 24.529 254.262 22.984C250.864 21.543 247.157 20.719 243.245 20.719C239.229 20.719 235.523 21.543 232.228 22.984C228.933 24.529 226.051 26.588 223.682 29.059C221.314 31.633 219.462 34.619 218.122 37.913C216.784 41.311 216.166 44.915 216.166 48.621C216.166 52.328 216.784 55.931 218.123 59.226C219.358 62.624 221.211 65.61 223.579 68.081C225.974 70.6786 228.884 72.7474 232.125 74.155C235.42 75.7 239.126 76.42 243.245 76.42V76.42ZM225.433 48.724C225.433 45.944 225.845 43.37 226.771 40.899C227.698 38.429 228.933 36.369 230.581 34.516C232.228 32.662 234.081 31.221 236.244 30.191C238.406 29.161 240.774 28.544 243.244 28.544C245.716 28.544 247.981 29.059 250.144 30.088C252.337 31.1279 254.297 32.5988 255.909 34.413C257.556 36.266 258.792 38.325 259.719 40.796C260.645 43.267 261.159 45.841 261.159 48.518C261.159 51.401 260.645 53.975 259.719 56.446C258.792 58.917 257.556 60.976 255.909 62.83C254.262 64.683 252.305 66.021 250.143 67.051C247.981 68.081 245.716 68.595 243.245 68.595C240.774 68.595 238.405 68.081 236.244 67.051C234.081 66.021 232.228 64.683 230.581 62.83C228.933 61.08 227.698 59.02 226.771 56.55C225.845 54.181 225.433 51.607 225.433 48.724Z" fill="black" stroke="black" stroke-width="5" stroke-miterlimit="2"/>
<path d="M333.867 75.39V43.267C333.867 40.075 333.557 37.09 333.043 34.31C332.528 31.633 331.704 29.265 330.469 27.205C329.233 25.146 327.586 23.602 325.527 22.469C323.467 21.337 320.894 20.719 317.805 20.719C313.069 20.719 308.641 21.852 304.626 24.117C300.611 26.382 297.522 29.471 295.463 33.177V21.646H287.226V75.391H296.286V42.958C296.904 40.899 297.831 39.046 299.066 37.296C300.302 35.648 301.743 34.104 303.39 32.868C305.038 31.633 306.788 30.706 308.641 29.985C310.495 29.265 312.348 28.853 314.201 28.853C317.701 28.853 320.379 30.191 322.129 32.765C323.879 35.442 324.806 39.561 324.806 45.326V75.391L333.867 75.39Z" fill="black" stroke="black" stroke-width="5" stroke-miterlimit="2"/>
<path d="M366.982 58.814C365.335 56.24 364.099 53.254 363.378 49.857C362.658 46.459 362.348 42.958 362.348 39.252V2.289H353.082V39.252C353.082 43.988 353.597 48.518 354.627 52.945C355.657 57.373 357.407 61.285 359.877 64.683C362.349 68.081 365.541 70.861 369.556 72.817C372.336 74.361 375.734 75.287 379.543 75.7V67.257C377.278 66.845 375.322 66.124 373.674 65.197C370.894 63.55 368.629 61.491 366.982 58.814V58.814ZM406.107 2.289V39.252C406.107 42.855 405.695 46.253 405.077 49.651C404.357 53.048 403.121 56.034 401.474 58.711C399.826 61.388 397.561 63.447 394.781 65.095C393.134 66.125 391.178 66.742 389.015 67.154V75.7C392.619 75.288 395.811 74.361 398.591 73.023C402.503 71.066 405.798 68.389 408.269 64.992C410.74 61.697 412.49 57.785 413.623 53.357C414.793 48.7469 415.381 44.0083 415.373 39.252V2.289H406.107Z" fill="black" stroke="black" stroke-width="5" stroke-miterlimit="2"/>
<path d="M437.655 75.39H446.922V2.29001H437.655V75.39Z" fill="black" stroke="black" stroke-width="5" stroke-miterlimit="2"/>
</svg>
