<svg width="365" height="139" viewBox="0 0 365 139" fill="none" xmlns="http://www.w3.org/2000/svg">
<path d="M55.5587 105.542H34.4144L19.0923 80.4164H17.3003V105.542H0V35.7534H27.4635C34.7935 35.7534 49.2768 38.7992 49.2768 58.0854C49.2768 71.0919 42.6888 76.7073 36.1502 78.9877L55.5587 105.542ZM31.8214 58.0854C31.8214 51.706 27.67 49.8242 23.4949 49.8242H17.3003V66.3466H23.4949C27.67 66.3466 31.8214 64.4649 31.8214 58.0854Z" fill="#111111"/>
<path d="M64.8212 42.4231C64.8212 37.2196 68.9088 33 73.951 33C78.9945 33 83.0822 37.2196 83.0822 42.4231C83.0822 47.6276 78.9945 51.8472 73.951 51.8472C68.9088 51.8472 64.8212 47.6276 64.8212 42.4231Z" fill="#111111"/>
<path d="M65.3524 105.453V64.5982L82.02 57.8315V105.453H65.3524Z" fill="#111111"/>
<path d="M133.193 71.7747L120.164 92.0275H139.602V105.597H92.9488L114.708 71.7747H95.9201V58.2054H123.439L141.924 58.2043L133.193 71.7747Z" fill="#111111"/>
<path d="M189.692 71.7747L176.664 92.0275H196.101V105.597H149.448L171.208 71.7747H152.42V58.2054H179.939L198.424 58.2043L189.692 71.7747Z" fill="#111111"/>
<path d="M246.892 44.1117H262.563V84.2655C262.563 88.6624 261.511 92.4674 259.406 95.6805C257.321 98.8748 254.408 101.346 250.669 103.093C246.93 104.822 242.589 105.686 237.647 105.686C232.668 105.686 228.309 104.822 224.57 103.093C220.83 101.346 217.918 98.8748 215.832 95.6805C213.765 92.4674 212.732 88.6624 212.732 84.2655V44.1117H228.403V82.9126C228.403 84.6977 228.797 86.2948 229.587 87.7041C230.376 89.0945 231.466 90.1844 232.856 90.9736C234.265 91.7627 235.862 92.1573 237.647 92.1573C239.451 92.1573 241.048 91.7627 242.439 90.9736C243.829 90.1844 244.919 89.0945 245.708 87.7041C246.498 86.2948 246.892 84.6977 246.892 82.9126V44.1117Z" fill="#111111"/>
<path d="M285.682 44.1117V105.01H270.011V44.1117H285.682Z" fill="#111111"/>
<path d="M340.166 70.115C340.998 71.7462 344.656 78.1997 345.426 79.7916C341.872 86.707 341.05 88.4946 333.392 99.5945C301.711 137.213 275.801 144.71 258.561 129.319C256.872 127.745 255.326 125.653 253.925 123.044C254.31 123.638 254.81 124.287 255.424 124.992L255.645 125.243C255.683 125.286 255.721 125.328 255.759 125.371L255.995 125.629L256.24 125.891L256.495 126.158L256.759 126.43L257.033 126.706L257.316 126.987L257.609 127.273L257.911 127.563L258.066 127.71L258.383 128.007L258.545 128.157L258.875 128.461L259.044 128.614C280.18 145.279 298.984 128.464 323.909 96.7513C327.656 91.7412 333.075 82.8625 340.166 70.115ZM346.69 12.3851C360.045 22.3689 361.193 39.1958 353.367 63.8739C352.521 62.1562 348.845 55.31 347.92 53.555C353.979 32.6356 353.491 22.9203 342.116 13.974C335.572 8.82754 331.179 8.89676 322.937 10.8207L322.398 10.9488C322.307 10.9703 322.217 10.9924 322.127 11.0146L321.581 11.1506L321.032 11.2911L320.756 11.3633L314.273 13.1128L314.272 13.1008L314.413 13.0381C327.274 7.33434 338.574 6.17822 346.69 12.3851Z" fill="black"/>
<path d="M340.74 47.7672C363.313 84.12 365.967 104.442 360.278 119.173C358.228 124.482 352.486 128.445 350.005 130.003C343.78 133.914 330.282 133.098 318.082 130.409L316.237 129.768C322.379 131.292 335.613 132.926 342.523 130.513C365.216 122.589 360.591 95.2839 334.403 53.692C308.216 12.1002 281.976 1.99016 262.484 11.4976C260.613 12.4103 259.007 13.5928 257.654 15.0142L257.797 14.839L258.085 14.4927L258.229 14.3219L258.519 13.9844C260.602 11.5891 262.801 9.68054 265.135 8.71185C282.847 1.36117 314.383 5.31829 340.74 47.7672Z" fill="black"/>
</svg>
