<svg width="367" height="156" viewBox="0 0 367 156" fill="none" xmlns="http://www.w3.org/2000/svg">
<rect x="209" width="158" height="156" rx="10" fill="black"/>
<path d="M55.5587 108.452H34.4144L19.0923 83.327H17.3003V108.452H0V38.6641H27.4635C34.7935 38.6641 49.2768 41.7098 49.2768 60.996C49.2768 74.0026 42.6888 79.6179 36.1502 81.8983L55.5587 108.452ZM31.8214 60.996C31.8214 54.6167 27.67 52.7348 23.4949 52.7348H17.3003V69.2572H23.4949C27.67 69.2572 31.8214 67.3756 31.8214 60.996Z" fill="#111111"/>
<path d="M64.8203 45.3332C64.8203 40.1298 68.908 35.9102 73.9502 35.9102C78.9937 35.9102 83.0814 40.1298 83.0814 45.3332C83.0814 50.5377 78.9937 54.7573 73.9502 54.7573C68.908 54.7573 64.8203 50.5377 64.8203 45.3332Z" fill="#111111"/>
<path d="M65.3516 108.364V67.5088L82.0192 60.7422V108.364H65.3516Z" fill="#111111"/>
<path d="M133.193 74.6836L120.165 94.9364H139.602V108.506H92.9492L114.709 74.6836H95.9206V61.1143H123.44L141.925 61.1133L133.193 74.6836Z" fill="#111111"/>
<path d="M189.693 74.6836L176.665 94.9364H196.102V108.506H149.449L171.209 74.6836H152.421V61.1143H179.94L198.425 61.1133L189.693 74.6836Z" fill="#111111"/>
<path d="M263.893 47.0234H279.564V87.1772C279.564 91.5741 278.512 95.3791 276.407 98.5922C274.321 101.787 271.409 104.257 267.67 106.005C263.93 107.734 259.59 108.598 254.648 108.598C249.669 108.598 245.309 107.734 241.57 106.005C237.831 104.257 234.919 101.787 232.833 98.5922C230.766 95.3791 229.732 91.5741 229.732 87.1772V47.0234H245.403V85.8243C245.403 87.6094 245.798 89.2066 246.587 90.6158C247.376 92.0063 248.466 93.0961 249.857 93.8853C251.266 94.6745 252.863 95.0691 254.648 95.0691C256.452 95.0691 258.049 94.6745 259.44 93.8853C260.83 93.0961 261.92 92.0063 262.709 90.6158C263.498 89.2066 263.893 87.6094 263.893 85.8243V47.0234Z" fill="white"/>
<path d="M302.683 47.0234V107.922H287.012V47.0234H302.683Z" fill="white"/>
<g opacity="0.6">
<path d="M335.215 81.8655C335.844 83.3399 338.656 89.1952 339.234 90.6316C335.717 96.4608 334.892 97.9734 327.542 107.213C297.627 138.188 274.547 143.194 260.404 128.723C259.022 127.247 257.797 125.327 256.729 122.965C257.029 123.507 257.427 124.104 257.921 124.756L258.1 124.989C258.13 125.028 258.161 125.067 258.192 125.107L258.383 125.346L258.581 125.59L258.788 125.839L259.003 126.092L259.225 126.349L259.456 126.612L259.694 126.878L259.941 127.15L260.068 127.287L260.327 127.566L260.459 127.706L260.73 127.992L260.868 128.136C278.339 143.952 295.766 130.383 319.427 104.165C322.999 100.012 328.262 92.5787 335.215 81.8655ZM344.352 31.8249C355.424 41.3414 355.424 56.1086 347.118 77.1998C346.482 75.649 343.678 69.4497 342.975 67.8615C349.513 49.9485 349.665 41.4327 340.261 32.9404C334.852 28.0551 331.01 27.854 323.696 29.0438L323.217 29.1235C323.137 29.137 323.057 29.1509 322.976 29.1649L322.492 29.2512L322.004 29.3413L321.758 29.3879L315.991 30.53V30.5195L316.118 30.4731C327.692 26.2566 337.631 25.9196 344.352 31.8249Z" fill="white"/>
<path d="M337.047 62.3751C354.6 95.4748 355.708 113.385 349.861 125.914C347.755 130.429 342.502 133.55 340.242 134.763C334.571 137.809 322.829 136.292 312.332 133.217L310.759 132.547C316.033 134.243 327.496 136.459 333.676 134.763C353.972 129.192 351.557 105.065 331.158 67.1732C310.759 29.2817 288.44 18.8877 270.847 26.032C269.158 26.7178 267.685 27.6551 266.418 28.8162L266.554 28.6717L266.826 28.3863L266.962 28.2457L267.235 27.9682C269.197 25.9998 271.232 24.4636 273.328 23.7564C289.238 18.39 316.55 23.7248 337.047 62.3751Z" fill="white"/>
</g>
</svg>
