<svg width="120" height="40" viewBox="0 0 251 93" fill="none" xmlns="http://www.w3.org/2000/svg">
<path d="M70.6606 92.1112H44.0203L24.7156 60.4553H22.4578V92.1112H0.660645V4.18313H35.2627C44.498 4.18313 62.7458 8.02059 62.7458 32.3198C62.7458 48.7072 54.4455 55.7821 46.2073 58.6553L70.6606 92.1112ZM40.7534 32.3198C40.7534 24.2823 35.5229 21.9113 30.2626 21.9113H22.4578V42.7284H30.2626C35.5229 42.7284 40.7534 40.3576 40.7534 32.3198Z" fill="#111111"/>
<path d="M82.3307 12.5864C82.3307 6.0304 87.4809 0.713989 93.8336 0.713989C100.188 0.713989 105.338 6.0304 105.338 12.5864C105.338 19.1437 100.188 24.4601 93.8336 24.4601C87.4809 24.4601 82.3307 19.1437 82.3307 12.5864Z" fill="#111111"/>
<path d="M83 92V40.5255L104 32V92H83Z" fill="#111111"/>
<path d="M168.474 49.5673L152.059 75.0844H176.549V92.181H117.769L145.185 49.5673H121.513V32.471H156.185L179.475 32.4697L168.474 49.5673Z" fill="#111111"/>
<path d="M239.659 49.5673L223.244 75.0844H247.734V92.181H188.955L216.37 49.5673H192.699V32.471H227.371L250.661 32.4697L239.659 49.5673Z" fill="#111111"/>
</svg>
