<svg width="361" height="92" viewBox="0 0 361 92" fill="none" xmlns="http://www.w3.org/2000/svg">
<path d="M70.6606 91.3972H44.0203L24.7156 59.7413H22.4578V91.3972H0.660645V3.46914H35.2627C44.498 3.46914 62.7458 7.3066 62.7458 31.6059C62.7458 47.9932 54.4455 55.0681 46.2073 57.9413L70.6606 91.3972ZM40.7534 31.6059C40.7534 23.5683 35.5229 21.1973 30.2626 21.1973H22.4578V42.0144H30.2626C35.5229 42.0144 40.7534 39.6436 40.7534 31.6059Z" fill="#111111"/>
<path d="M82.3307 11.8724C82.3307 5.31641 87.4809 0 93.8336 0C100.188 0 105.338 5.31641 105.338 11.8724C105.338 18.4297 100.188 23.7461 93.8336 23.7461C87.4809 23.7461 82.3307 18.4297 82.3307 11.8724Z" fill="#111111"/>
<path d="M83 91.286V39.8115L104 31.286V91.286H83Z" fill="#111111"/>
<path d="M168.474 48.8533L152.059 74.3704H176.549V91.467H117.769L145.185 48.8533H121.513V31.757H156.185L179.475 31.7557L168.474 48.8533Z" fill="#111111"/>
<path d="M239.659 48.8533L223.244 74.3704H247.734V91.467H188.955L216.37 48.8533H192.699V31.757H227.371L250.661 31.7557L239.659 48.8533Z" fill="#111111"/>
<path d="M311.727 14H331.472V64.5909C331.472 70.1307 330.146 74.9247 327.494 78.973C324.866 82.9976 321.197 86.1108 316.486 88.3125C311.775 90.4905 306.306 91.5795 300.08 91.5795C293.806 91.5795 288.313 90.4905 283.602 88.3125C278.891 86.1108 275.222 82.9976 272.594 78.973C269.99 74.9247 268.688 70.1307 268.688 64.5909V14H288.432V62.8864C288.432 65.1354 288.929 67.1477 289.923 68.9233C290.918 70.6752 292.291 72.0483 294.043 73.0426C295.818 74.0369 297.83 74.5341 300.08 74.5341C302.352 74.5341 304.365 74.0369 306.116 73.0426C307.868 72.0483 309.241 70.6752 310.236 68.9233C311.23 67.1477 311.727 65.1354 311.727 62.8864V14Z" fill="#111111"/>
<path d="M360.6 14V90.7273H340.855V14H360.6Z" fill="#111111"/>
</svg>
